<svg xmlns="http://www.w3.org/2000/svg" width="48" height="48" viewBox="0 0 48 48"><path fill="#795548" d="M29,27c-3,0-8,0-11,0H5c0,0,1,0,2,3s2,6,7,6c2,0,14,1,18,1c4.885,0,6.456-7.289,9.568-10H29z"/><path fill="#90CAF9" d="M44,34c-3,0-4-2-4-2s-1,2-4,2s-4-2-4-2s-1,2-4,2s-4-2-4-2s-1,2-4,2s-4-2-4-2s-1,2-4,2s-4-2-4-2s-1,2-4,2v8h4h32h4V34z"/><path fill="#2196F3" d="M44,38c-3,0-4-2-4-2s-1,2-4,2s-4-2-4-2s-1,2-4,2s-4-2-4-2s-1,2-4,2s-4-2-4-2s-1,2-4,2s-4-2-4-2s-1,2-4,2v4h4h32h4V38z"/><path fill="#5D4037" d="M15 24H5v3h13C15 27 15 24 15 24zM32 23c0 0 0 4-3 4h15v-4H32zM22 7.207H24V27H22z"/><path fill="#3E2723" d="M13 29H15V31H13zM19 29H21V31H19zM25 29H27V31H25zM31 29H33V31H31z"/><path fill="#FF3D00" d="M22,6.245v4c3.916-1.417,7.584,1,10-4C27.834,9.081,25.666,4.995,22,6.245z"/><g><path fill="#90CAF9" d="M31 12c0 0 3 3 2 9h9C42 21 38 14 31 12zM29 25H17.111c3.889-6 0-13 0-13H29C29 12 34 19 29 25zM16.353 22c1.06-3.159.109-6.396-.527-8H8c0 0 2 4 .111 8H16.353z"/></g></svg>